<mxfile host="app.diagrams.net" modified="2021-10-11T09:56:54.846Z" agent="5.0 (Windows NT 10.0; Win64; x64) AppleWebKit/537.36 (KHTML, like Gecko) Chrome/94.0.4606.71 Safari/537.36 Edg/94.0.992.38" etag="bJUcaDbuG1Mo7LsihWrx" version="15.4.3" type="github">
  <diagram id="7rdWf9LpqN05euV_0Y3X" name="Page-1">
    <mxGraphModel dx="1185" dy="662" grid="1" gridSize="10" guides="1" tooltips="1" connect="1" arrows="1" fold="1" page="1" pageScale="1" pageWidth="850" pageHeight="1100" math="0" shadow="0">
      <root>
        <mxCell id="0" />
        <mxCell id="1" parent="0" />
        <mxCell id="XM0QXs-riy_kcMsldG8M-1" value="Glacier&lt;br&gt;&lt;b&gt;Incremental&lt;br&gt;Long-term Data&lt;/b&gt;" style="sketch=0;outlineConnect=0;fontColor=#232F3E;gradientColor=none;fillColor=#6CAE3E;strokeColor=none;dashed=0;verticalLabelPosition=bottom;verticalAlign=top;align=center;html=1;fontSize=12;fontStyle=0;aspect=fixed;pointerEvents=1;shape=mxgraph.aws4.glacier;" vertex="1" parent="1">
          <mxGeometry x="610" y="240" width="75" height="78" as="geometry" />
        </mxCell>
        <mxCell id="XM0QXs-riy_kcMsldG8M-11" style="edgeStyle=orthogonalEdgeStyle;rounded=0;orthogonalLoop=1;jettySize=auto;html=1;entryX=1;entryY=0.5;entryDx=0;entryDy=0;dashed=1;fontSize=16;strokeColor=#248823;" edge="1" parent="1" source="XM0QXs-riy_kcMsldG8M-2" target="XM0QXs-riy_kcMsldG8M-10">
          <mxGeometry relative="1" as="geometry">
            <Array as="points">
              <mxPoint x="968" y="510" />
            </Array>
          </mxGeometry>
        </mxCell>
        <mxCell id="XM0QXs-riy_kcMsldG8M-2" value="Intelligent Tiering&lt;br&gt;&lt;b&gt;Uncategorized Data&lt;/b&gt;" style="sketch=0;outlineConnect=0;fontColor=#232F3E;gradientColor=none;fillColor=#6CAE3E;strokeColor=none;dashed=0;verticalLabelPosition=bottom;verticalAlign=top;align=center;html=1;fontSize=12;fontStyle=0;aspect=fixed;pointerEvents=1;shape=mxgraph.aws4.intelligent_tiering;" vertex="1" parent="1">
          <mxGeometry x="930" y="240" width="75" height="78" as="geometry" />
        </mxCell>
        <mxCell id="XM0QXs-riy_kcMsldG8M-9" style="edgeStyle=orthogonalEdgeStyle;rounded=0;orthogonalLoop=1;jettySize=auto;html=1;fontSize=16;dashed=1;strokeColor=#248823;" edge="1" parent="1" source="XM0QXs-riy_kcMsldG8M-3" target="XM0QXs-riy_kcMsldG8M-8">
          <mxGeometry relative="1" as="geometry">
            <Array as="points">
              <mxPoint x="550" y="279" />
            </Array>
          </mxGeometry>
        </mxCell>
        <mxCell id="XM0QXs-riy_kcMsldG8M-3" value="Standard IA&lt;br&gt;&lt;b&gt;Incremental&lt;br&gt;Medium-term Data&lt;/b&gt;" style="sketch=0;outlineConnect=0;fontColor=#232F3E;gradientColor=none;fillColor=#6CAE3E;strokeColor=none;dashed=0;verticalLabelPosition=bottom;verticalAlign=top;align=center;html=1;fontSize=12;fontStyle=0;aspect=fixed;pointerEvents=1;shape=mxgraph.aws4.standard_ia;" vertex="1" parent="1">
          <mxGeometry x="450" y="240" width="75" height="78" as="geometry" />
        </mxCell>
        <mxCell id="XM0QXs-riy_kcMsldG8M-4" value="Glacier Deep Archive&lt;br&gt;&lt;b&gt;Incremental&lt;br&gt;Archive Data&lt;/b&gt;" style="sketch=0;outlineConnect=0;fontColor=#232F3E;gradientColor=none;fillColor=#6CAE3E;strokeColor=none;dashed=0;verticalLabelPosition=bottom;verticalAlign=top;align=center;html=1;fontSize=12;fontStyle=0;aspect=fixed;pointerEvents=1;shape=mxgraph.aws4.glacier_deep_archive;" vertex="1" parent="1">
          <mxGeometry x="770" y="240" width="75" height="78" as="geometry" />
        </mxCell>
        <mxCell id="XM0QXs-riy_kcMsldG8M-6" value="Standard&lt;br&gt;&lt;b&gt;Reference Data&lt;/b&gt;" style="sketch=0;outlineConnect=0;fontColor=#232F3E;gradientColor=none;fillColor=#6CAE3E;strokeColor=none;dashed=0;verticalLabelPosition=bottom;verticalAlign=top;align=center;html=1;fontSize=12;fontStyle=0;aspect=fixed;pointerEvents=1;shape=mxgraph.aws4.bucket;" vertex="1" parent="1">
          <mxGeometry x="130" y="240" width="75" height="78" as="geometry" />
        </mxCell>
        <mxCell id="XM0QXs-riy_kcMsldG8M-7" value="Standard&lt;br&gt;&lt;b&gt;Incremental&lt;br&gt;Short-term Data&lt;/b&gt;" style="sketch=0;outlineConnect=0;fontColor=#232F3E;gradientColor=none;fillColor=#6CAE3E;strokeColor=none;dashed=0;verticalLabelPosition=bottom;verticalAlign=top;align=center;html=1;fontSize=12;fontStyle=0;aspect=fixed;pointerEvents=1;shape=mxgraph.aws4.bucket;" vertex="1" parent="1">
          <mxGeometry x="290" y="240" width="75" height="78" as="geometry" />
        </mxCell>
        <mxCell id="XM0QXs-riy_kcMsldG8M-8" value="&lt;div style=&quot;font-size: 16px&quot;&gt;&lt;font style=&quot;font-size: 16px&quot; color=&quot;#ff9900&quot;&gt;Tiết kiệm 20% chi phí lưu trữ&lt;/font&gt;&lt;/div&gt;&lt;div style=&quot;font-size: 16px&quot;&gt;&lt;font color=&quot;#ff9900&quot;&gt;&lt;font style=&quot;font-size: 16px&quot;&gt;Tính sẵn sàng thấp (99.5%) và c&lt;/font&gt;ó khả năng mất dữ liệu&lt;/font&gt;&lt;/div&gt;" style="text;html=1;strokeColor=#FF9900;fillColor=default;align=left;verticalAlign=middle;whiteSpace=wrap;rounded=0;dashed=1;" vertex="1" parent="1">
          <mxGeometry x="272.5" y="410" width="430" height="60" as="geometry" />
        </mxCell>
        <mxCell id="XM0QXs-riy_kcMsldG8M-10" value="&lt;div style=&quot;text-align: justify ; font-size: 16px&quot;&gt;&lt;font color=&quot;#ff9900&quot;&gt;Cần phân tích thêm về mức độ sử dụng thực tế&amp;nbsp;&lt;/font&gt;&lt;span style=&quot;color: rgb(255 , 153 , 0)&quot;&gt;trước&amp;nbsp;&lt;/span&gt;&lt;span style=&quot;color: rgb(255 , 153 , 0)&quot;&gt;khi quyết định lớp lưu trữ phù hợp&lt;/span&gt;&lt;/div&gt;" style="text;html=1;strokeColor=#FF9900;fillColor=none;align=center;verticalAlign=middle;whiteSpace=wrap;rounded=0;dashed=1;" vertex="1" parent="1">
          <mxGeometry x="470" y="480" width="430" height="60" as="geometry" />
        </mxCell>
      </root>
    </mxGraphModel>
  </diagram>
</mxfile>
